<?xml version="1.0" encoding="UTF-8"?>
<svg version="1.1" xmlns="http://www.w3.org/2000/svg" width="500" height="500">
<path d="M0 0 C165 0 330 0 500 0 C500 165 500 330 500 500 C335 500 170 500 0 500 C0 335 0 170 0 0 Z " fill="#FEFEFE" transform="translate(0,0)"/>
<path d="M0 0 C3.43089122 0.68085903 5.15629458 2.25949631 7.83203125 4.5 C12.55875303 8.27790799 17.41212922 11.2492992 22.83203125 13.9375 C23.81780151 14.4315332 23.81780151 14.4315332 24.82348633 14.93554688 C31.53989045 18.18397053 37.95342842 19.70115756 45.3828125 20.15625 C47.51953125 20.5 47.51953125 20.5 49.51953125 22.5 C49.69499607 25.51308951 49.7508057 28.43310454 49.71484375 31.4453125 C49.71201385 32.3303244 49.70918396 33.2153363 49.70626831 34.12716675 C49.69505365 36.95991412 49.66994695 39.79234784 49.64453125 42.625 C49.6345031 44.54296419 49.62537697 46.46093333 49.6171875 48.37890625 C49.59511014 53.08605876 49.5605717 57.79297616 49.51953125 62.5 C50.9347976 62.99103392 52.35181345 63.47702697 53.76953125 63.9609375 C54.95289063 64.36771729 54.95289063 64.36771729 56.16015625 64.78271484 C59.27042214 65.72828202 62.2991709 66.09745496 65.51953125 66.5 C68.00168877 68.98215752 66.69303884 75.0927657 66.70507812 78.57226562 C66.70499756 79.31001221 66.70491699 80.04775879 66.70483398 80.80786133 C66.70699861 83.02900992 66.7250853 85.24964398 66.74414062 87.47070312 C66.79537956 99.78300918 65.52790855 108.73880468 56.9921875 118.19140625 C52.04601766 122.82314964 45.97218017 126.46143467 39.51953125 128.5 C33.67450783 128.22515564 28.96940968 124.74702265 24.44140625 121.29296875 C22.48999551 120.25656017 22.48999551 120.25656017 20.25 121.13671875 C19.34894531 121.58660156 18.44789063 122.03648437 17.51953125 122.5 C15.75802734 123.35464844 15.75802734 123.35464844 13.9609375 124.2265625 C12.01345662 125.17751959 10.06895188 126.13161184 8.13476562 127.109375 C4.05204683 129.08234368 1.03330938 130.14984354 -3.48046875 129.5 C-6.18380096 128.52561534 -8.68998924 127.27473841 -11.23046875 125.9375 C-12.28826538 125.39113892 -12.28826538 125.39113892 -13.36743164 124.83374023 C-28.97774267 116.61487127 -41.43801086 105.66053939 -47.35546875 88.5625 C-48.86414159 83.60679617 -49.60587157 78.91841496 -49.62573242 73.73168945 C-49.63211227 72.59733963 -49.63849213 71.46298981 -49.64506531 70.29426575 C-49.64617813 69.07954086 -49.64729095 67.86481598 -49.6484375 66.61328125 C-49.6534301 64.73324654 -49.6534301 64.73324654 -49.65852356 62.81523132 C-49.66358086 60.16999752 -49.66636537 57.52486656 -49.66577148 54.87963867 C-49.66566944 51.48661803 -49.67937422 48.09380467 -49.69654369 44.70083332 C-49.71030741 41.46332357 -49.70975116 38.22581631 -49.7109375 34.98828125 C-49.71812302 33.76748367 -49.72530853 32.5466861 -49.73271179 31.28889465 C-49.72963516 30.16400131 -49.72655853 29.03910797 -49.72338867 27.88012695 C-49.72481369 26.88705032 -49.72623871 25.89397369 -49.72770691 24.87080383 C-49.48046875 22.5 -49.48046875 22.5 -47.48046875 20.5 C-45.36556693 20.15916871 -43.23693356 19.90158752 -41.10546875 19.6875 C-27.58835133 17.87053513 -15.12288622 11.20004419 -4.8828125 2.22265625 C-2.48046875 0.5 -2.48046875 0.5 0 0 Z " fill="#38B6FE" transform="translate(241.48046875,172.5)"/>
<path d="M0 0 C2.39515676 1.32938732 4.62563135 2.73181915 6.859375 4.31640625 C12.94528544 8.44757062 18.08085293 10.4904836 25.484375 11.37890625 C27.96653252 13.86106377 26.65788259 19.97167195 26.66992188 23.45117188 C26.66984131 24.18891846 26.66976074 24.92666504 26.66967773 25.68676758 C26.67184236 27.90791617 26.68992905 30.12855023 26.70898438 32.34960938 C26.76022331 44.66191543 25.4927523 53.61771093 16.95703125 63.0703125 C11.85645125 67.84665025 4.26074623 73.47135214 -2.9375 73.33203125 C-12.54778005 70.53755265 -21.64083706 63.03379977 -26.63818359 54.45092773 C-30.53066205 46.0999774 -29.96428487 37.75169912 -29.765625 28.75390625 C-29.74552108 27.1614809 -29.72727721 25.56903092 -29.7109375 23.9765625 C-29.66726794 20.11005936 -29.59846018 16.24476049 -29.515625 12.37890625 C-26.64105396 11.41716766 -23.76857208 10.45785867 -20.875 9.5546875 C-14.59074362 7.47561465 -9.91408428 4.79502478 -4.8046875 0.57421875 C-2.515625 -0.62109375 -2.515625 -0.62109375 0 0 Z " fill="#5070FE" transform="translate(281.515625,227.62109375)"/>
<path d="M0 0 C0.56847656 0.20496094 1.13695312 0.40992188 1.72265625 0.62109375 C6.52045288 2.29511628 10.96700562 3.3708757 16 4 C18.48215752 6.48215752 17.17350759 12.5927657 17.18554688 16.07226562 C17.18546631 16.81001221 17.18538574 17.54775879 17.18530273 18.30786133 C17.18746736 20.52900992 17.20555405 22.74964398 17.22460938 24.97070312 C17.27584831 37.28300918 16.0083773 46.23880468 7.47265625 55.69140625 C2.52648641 60.32314964 -3.54735108 63.96143467 -10 66 C-13.50519109 65.8351791 -15.98051912 64.73020161 -19 63 C-19.76957031 62.55914062 -20.53914063 62.11828125 -21.33203125 61.6640625 C-23.26305645 60.49394916 -25.14147138 59.28122 -27 58 C-25.8673662 54.60209859 -25.29216307 54.28555728 -22.4375 52.375 C-12.08141268 44.79286464 -4.51566179 33.72913558 -1.625 21.125 C-0.54945438 14.15733486 -0.33169698 7.0354675 0 0 Z " fill="#024BAD" transform="translate(291,235)"/>
</svg>
