<?xml version="1.0" encoding="UTF-8"?>
<!DOCTYPE svg PUBLIC "-//W3C//DTD SVG 1.1//EN" "http://www.w3.org/Graphics/SVG/1.1/DTD/svg11.dtd">
<svg xmlns="http://www.w3.org/2000/svg" version="1.1" width="500px" height="500px" style="shape-rendering:geometricPrecision; text-rendering:geometricPrecision; image-rendering:optimizeQuality; fill-rule:evenodd; clip-rule:evenodd" xmlns:xlink="http://www.w3.org/1999/xlink">
<g><path style="opacity:1" fill="#fefefe" d="M -0.5,-0.5 C 166.167,-0.5 332.833,-0.5 499.5,-0.5C 499.5,166.167 499.5,332.833 499.5,499.5C 332.833,499.5 166.167,499.5 -0.5,499.5C -0.5,332.833 -0.5,166.167 -0.5,-0.5 Z"/></g>
<g><path style="opacity:1" fill="#39b6fe" d="M 290.5,233.5 C 286.601,231.614 282.934,229.281 279.5,226.5C 271.556,233.389 262.389,237.722 252,239.5C 251.106,251.882 251.439,264.215 253,276.5C 254.827,282.145 257.993,286.812 262.5,290.5C 262.5,290.833 262.5,291.167 262.5,291.5C 254.986,296.928 246.653,300.094 237.5,301C 223.699,295.683 211.865,287.516 202,276.5C 196.904,268.879 193.57,260.546 192,251.5C 191.333,232.5 191.333,213.5 192,194.5C 209.375,191.565 224.875,184.398 238.5,173C 240.167,172.333 241.833,172.333 243.5,173C 256.856,184.93 272.356,192.096 290,194.5C 290.5,207.496 290.667,220.496 290.5,233.5 Z"/></g>
<g><path style="opacity:1" fill="#5170fe" d="M 290.5,233.5 C 290.5,233.833 290.5,234.167 290.5,234.5C 292.403,255.636 285.403,273.136 269.5,287C 267.423,288.705 265.09,289.872 262.5,290.5C 257.993,286.812 254.827,282.145 253,276.5C 251.439,264.215 251.106,251.882 252,239.5C 262.389,237.722 271.556,233.389 279.5,226.5C 282.934,229.281 286.601,231.614 290.5,233.5 Z"/></g>
<g><path style="opacity:1" fill="#044bad" d="M 290.5,234.5 C 295.738,237.08 301.238,238.746 307,239.5C 307.874,252.209 307.54,264.876 306,277.5C 299.626,291.949 288.792,298.782 273.5,298C 269.778,295.81 266.111,293.644 262.5,291.5C 262.5,291.167 262.5,290.833 262.5,290.5C 265.09,289.872 267.423,288.705 269.5,287C 285.403,273.136 292.403,255.636 290.5,234.5 Z"/></g>
</svg>
